<svg id="Layer_1" xmlns="http://www.w3.org/2000/svg" viewBox="0 0 1149.7 186.3"><style>.st0{fill:#fff}</style><path class="st0" d="M86.3 109c-1.1 11.4-6.7 18.7-15.4 23.6-6.5 3.7-13.7 5.6-21.2 6.1-3.8.3-7.6.9-11.4.8-11.2-.1-22-2.1-32.2-6.8-.6-.3-1.2-.6-1.9-1-.4-1.2-1-2.4-1.2-3.7-1.4-10.3-3-20.5-3-31.2h13.2c1.1 3.9 1.9 7.9 3.3 11.8 2.5 7 6.6 13 13.1 17 4.9 2.9 10 3.9 15.7 2.2 4.1-1.3 5.9-4.2 6.6-7.9.8-4.6-.3-8.9-3.6-12.4-3.6-4-7.9-7.1-12.7-9.5-6.9-3.5-14.1-6.6-20.5-11.2C8.2 81.7 2.9 75.7 1.4 66.9c-2-12.2 2-23.3 12.6-30.1 7.2-4.6 15.5-6.6 24-7 5.3-.2 10.7-.1 16 0 7.1.1 16.2 2.5 23.5 6.2 1.9 9.6 2.7 19.4 2.3 29.6H68.4c-.6-4.6-2.3-9-4.6-13.2-2.1-4-4.8-7.6-8.8-9.9-5.1-2.9-11.4-3.4-15.8.3-1.1.9-2.4 2.1-2.7 3.4-1.2 5.1-1.7 10.2 2.6 14.4 4.3 4.3 9.4 7.3 14.6 10.2 4.4 2.4 8.8 4.5 13.3 6.7 5.9 2.8 10.5 6.9 14.7 12.5.1-1.8.2-3.2.2-4.5 0-9 1.6-17.8 5.3-26 4.4-9.7 11.4-17 20.8-22.1 8.6-4.6 17.7-7.2 27.5-7.5 7.1-.2 14.3-.4 21.3 1.5 13.2 3.6 22.3 11.9 27.1 24.7.2.6.4 1.2.9 2.4 1.8-2.3 3.3-4.1 4.8-6 8.9-11.8 20.9-18.5 35.2-21.6 9.4-2 18.9-1.5 28.3-.8 5.7.4 11.5 1.3 16.5 4.6 2.1 1.4 4.1 2.8 6.2 4.3 13.7-3.8 27.4-7.3 41.9-9.5.9 4.9 1.8 9.6 2.6 14.4 2.8-2.5 5.6-4.8 8.3-7.2 6.3-5.7 13.7-8 22.1-6.8 4.5.7 8.4 2.9 11.3 6.7 1 1.3 1.9 2.7 3 4.3 1.2-.7 2.3-1.3 3.4-1.9 6.6-4.2 13.9-6.7 21.6-8.2 7.9-1.6 16-1.7 23.8-.6 16.5 2.3 28.4 11 34.3 27.4v-4.9c0-10.3.1-20.7 0-31-.1-7.1 3.4-12 9-15.6 3.6-2.3 7.8-3.4 12.1-4.2 5.1-1 10.2-.9 15.8-.8.4 5.4.1 10.6.2 15.9.1 5.1 0 10.3 0 15.9 8.6.7 17.1 1.4 25.7 2.1v5.7c-8.1 2.6-16.9 1.6-25.5 3.5-.1 1.2-.2 2.5-.2 3.8 0 14.7-.2 29.3.3 44 .2 7 .5 14.1 3.5 20.9 2.5 5.8 6.4 9.2 12.8 10.4 4.1.8 7.8-.1 11.6-.8 1.1-.2 2.2-.3 3.4-.4.6 2 1 3.7 1.5 5.4-2.5 2.8-5.7 4.2-8.8 5.7-7.2 3.5-14.8 5.6-22.8 6-3.5.1-6.9.8-10.4.8-7.1-.1-13.9-1.8-19.1-6.9-2.6-2.5-4.5-5.7-6.9-8.8l-2.4 1.6c-8.3 6.3-17.5 10.5-27.8 12.4-6.2 1.1-12.4 2.1-18.7 1.8-13.7-.8-26.7-3.8-37.9-12.6-8.4-6.7-13.5-15.4-16.2-25.5-1.8-6.6-2.7-13.4-1.9-20.2.6-5.5 1.7-11 2.7-16.9-8.4-3-15.8-9.3-25.9-10.3v5c0 14.3.1 28.7 0 43-.1 6.6-.4 13.3-.9 19.9-.5 6-4.4 9.9-9.2 12.9-3.8 2.3-8.1 3.5-12.6 4.1-4.3.6-8.5 1-12.9.8-.6 0-1.3-.1-2.3-.3v-5.6-74.5c0-2-.4-3.9-.7-5.9-.3-2.5-1.7-4.3-4.1-5.5h-6c-2.6 4.7-5.4 9.4-10.1 12.9h-3.6c-3.1-3.4-5.9-6.9-9.1-10-2.4-2.3-5.1-4.4-8-5.9-9.3-4.9-15.6-1.9-20.2 5.9-2.1 3.5-3.1 7.6-4.1 11.6-1.8 7.2-1.6 14.6-.9 21.8.9 10 4 19.5 11.2 27 5.2 5.5 11.7 9 19.3 10.6 9.1 1.9 18.1.7 27.4-.9.9 1.7 1.8 3.4 2.8 5.4-3.6 3.3-7.9 5.2-12.2 7.1-10.3 4.5-21.1 6.9-32.3 6.2-10.6-.6-21-2.1-30.7-6.9-5.4-2.7-10.1-6.3-14.1-10.7-8.9 8.6-19.4 13.5-31.1 15.8-6.3 1.3-12.7 2.2-19.2 1.8-13.9-.9-27.1-3.7-38.3-12.9-4.3-3.5-7.8-7.7-10.6-12.4-1.3-2-2.1-3.5-3.4-5.9zm361.8 7.9c-.3-14.9 0-29.5-.2-44.4-19.6 8.1-39.7 13-60.1 17.7.4 2.2.7 4.2 1.2 6 2.5 8.4 6.2 16.1 14 20.9 5.7 3.5 12.1 5.2 18.8 5.4 4.6.1 9.3-.2 13.8-1.1 4.5-.8 9-2.2 12.5-4.5zM125 90.2c0 4.5 1.5 8.6 3.1 12.4 2.9 6.9 7.4 12.6 14.3 15.9 4.9 2.4 10.2 3.7 15.7 4.1 9.2.6 18-1.3 26.6-5.4-4.1-6.1-6.3-12.8-7.3-19.8-1.1-7.2-1-14.4.5-22-17.6 6.3-35 10.9-52.9 14.8zM123.2 78c10.3-1.4 20.2-2.4 30-5.7-1.2-6.2-2-12.1-3.5-17.8-1.2-4.7-3.4-9-7.4-12-2.7-2.1-5.5-3.1-9.2-2-4.3 1.2-6.8 3.8-8.2 7.8-3.2 9.5-3.7 19.2-1.7 29.7zM416 72.1c-.3-1.8-.8-3.7-.9-5.7-.3-5-1.6-9.7-3.2-14.4-1.3-3.8-3.5-7.1-6.7-9.7-2.5-2-5.3-2.9-8.7-2-4.6 1.1-7.1 4.1-8.5 8.1-3.4 9.5-3.6 19.2-1.8 29 6.6.4 24.2-2.8 29.8-5.3zM801.1 35.4c-.3 6.6-2.4 12.3-6.6 17.6-2.6-2.3-4.8-4.5-7.2-6.4-4.3-3.5-9.5-5.1-15-6.1-4.9-.9-9.5-.4-14.1 1.1-8.6 2.9-14.1 9-17.3 17.3-2.1 5.4-3.1 11.1-3.2 17-.1 9.5.7 18.8 4 27.8 4.9 13.3 14 21.8 27.5 25.6 10.7 3 21.8 1.2 31.7-5 0-.8 0-1.8-.1-2.7-2.4-12.2 2.6-21.5 11.6-29.2 6.5-5.5 14.1-9.2 22.1-12 6.7-2.3 13.5-4.4 20.2-6.6 1.4-.5 2.8-.9 4.2-1.4-.1-6.7.4-13.1-1.8-19.4-2.5-7.2-7.1-11.2-14.6-12.4-13.9-2.2-22 5-26.9 12.7-1.9 3.1-3.6 6.3-5.4 9.4-3.8-1-6.2-4-7.6-9.9 9.6-12.2 21.4-20.9 37.5-23.2 7.4-1.1 14.5-.6 21.6 1.3 7.6 2.1 12.4 7.3 15 14.7 1.9 5.5 2.3 11.3 2.3 17.2-.1 13.2-.3 26.3.1 39.5.2 5.9.1 11.9 1.7 17.7.5 1.9 1.1 3.9 2 5.5.9 1.5 2.1 3.2 3.6 3.9 1.8.9 3.8 2.1 6.3.9.1-.6.2-1.2.2-1.8 0-25.8 0-51.7-.1-77.5 0-3.4-.4-6.6-3.3-9.1-3.4-.5-6.8-.3-10.2 1.3-.6-2.2-1-3.9-1.6-6 10.7-3.7 21.4-7 32.5-8.4 2.8 2.4 2 6 3.8 9 2.4-1.2 4.6-2.4 7-3.6 7.7-3.8 15.9-5.7 24.4-5.2 13.8.7 26.2 5.1 35.8 15.6 5.3 5.8 9.4 14.5 11.2 24.4.6-1.8 1.1-3.2 1.6-4.6 6.9-18 19.4-29.8 38.3-34.3 10.4-2.4 20.7-1.7 30.5 3 8 3.9 13.1 10.4 16.7 18.4 1-2.3 1.9-4.7 3.1-6.8 4.2-7.3 10.8-11.6 18.7-13.8 11.3-3.2 22.5-2.7 33.5 1.9 3.7 1.5 5.7 3.8 6.3 7.9 1.1 7.4 2.1 14.7 1.7 22.4-2.2 1.1-4.5.2-6.9.7-.4-1.3-.8-2.1-.9-3.1-.8-8-4-14.7-10.3-19.7-4.6-3.6-9.8-5.5-15.8-3.3-3.9 1.4-6.7 3.8-8.2 8-2.9 8-.5 16 5.9 20.6 6 4.3 12.8 7 19.3 10.3 5.6 2.9 11.2 5.6 15.7 10.2 3.2 3.3 5.4 7 6.7 11.4 1.9 6.2 1.8 12.4 0 18.5-2.1 7.1-6.5 12.6-13 16.3-6.3 3.6-13 5.7-20.3 5.8-6 .1-11.9.4-17.9-.9-5.5-1.2-10.8-2.9-15.8-5.4-.6-1.3-1.1-2.5-1.6-3.5-.6 0-1-.2-1.2-.1-10.8 6.7-22.5 10-35.3 10-8.9 0-17.4-1.2-25.5-5.1-14.5-7.1-23.4-18.5-26.4-34.5 0-.1-.2-.3-.5-.8-.4.5-.9.9-1 1.3-5.4 16.5-16.5 27.4-32.4 34.1-11.4 4.8-23.1 5.2-35.1 4.5-2.7-.2-5.4-1.1-8.5-1.8-.1 1.5-.2 2.7-.2 4v31.5c0 1.3 0 2.7-.2 4-.9 4.4-3.4 7.5-7.9 8.5-3.2.7-6.4 1.3-9.7 1.7-.7.1-1.5-.3-2.5-.5-.9-4.3-.3-8.4-.4-12.5-.1-4 0-8 0-12v-12.5-12.5c-1.4.3-2.5.5-3.4.8-5.5 2-11.2 1.8-16.7 1-4.9-.7-8.8-3.8-11.1-8.2-4.2 1.9-8.3 3.9-12.5 5.7-6.6 2.8-13.5 2.7-20.5 2.9-9.2.3-17.3-2.4-24-8.9-9.3 5.7-19.3 8.6-30.1 8.7-3.7 0-7.3.2-11 0-11.4-.6-21.5-4.4-30.7-11.3-6.2-4.6-10.2-10.8-13.5-17.5-.8 3.1-1.4 6.3-2.5 9.3-3.2 8.3-9.5 13.4-17.6 16.5-5.1 2-10.4 3.1-16 3.2-8.3.1-16.6-.1-24.5-3.1-1.8-.7-3.7-1.4-6-2.2-1 .6-2.3 1.3-3.5 2.2-7.1 5.2-14.9 9.2-23.5 11.3-3.2.8-6.5 1.2-9.7 1.7-2.3.4-4.6.9-6.9.8-17.5-.2-33.8-4.2-47.6-15.6-11.3-9.4-18.7-21.4-21.9-35.8-1.6-7.4-2.6-15-2-22.7 1.2-16.4 5-31.9 14.8-45.6 10-13.9 23.2-22.9 39.7-27.3C600 .1 608-.4 615.9.3c19.7 1.9 34.3 11.3 42 30.1.6 1.5 1.4 3 2.1 4.5 16.4-8.7 32.7-9.2 49-.2 3.5 9 2.3 18.4 3.5 27.4-2.5 1.5-4.9.7-7.2.9-.9-3.4-1.6-6.8-2.6-10.1-1.4-4.9-4-9.2-8.1-12.3-4.5-3.4-9.4-5.6-15.2-3.8-7.3 2.2-12.2 10.5-10.4 17.9 1.2 4.8 3.5 8.9 7.9 11.5 3.1 1.8 6.3 3.7 9.5 5.3 3.2 1.7 6.6 3.1 9.8 4.8 7.8 4 12.4 6.2 19.2 14.7.4-3.4.9-6.6 1.2-9.9 1.3-14.9 7.1-27.6 18.1-37.9 7.9-7.4 17.3-11.7 27.6-13.8 6.4-1.3 13-1.8 19.7-.7 6.8 1.7 13 3 19.1 6.7zM567 80c0 1.1-.1 2 0 2.8 1.8 11.1 5.7 21.4 12.6 30.3 12.7 16.4 29.5 23.2 50.1 20.7 7.5-.9 13.7-4.2 19.2-9-1.6-7.7-2.5-15.2-1.9-22.8h5.9c2.1 4.7 3.7 9.2 6.1 13.4 5.4 9.5 12.7 16 24.6 15.5 6.2-.3 12.2-4 14.2-9.9 2.6-7.4 1.4-14.3-4.1-20.2-2.7-3-5.9-5.3-9.5-7.1-6.4-3.1-12.9-6.1-19.1-9.5-10.6-5.8-16.6-14.4-16.1-26.9 0-1-.2-2.1-.3-3.3-26.5 11.6-53.9 19.4-81.7 26zm516.1 21.8c2.4 5.3 4.3 10.3 6.9 14.8 5.2 9.1 12.8 14.4 23.8 14.3 6.4-.1 12.1-3.9 14.1-9.9 3.1-8.9.8-17.7-6.7-23.1-4-2.9-8.6-5-12.9-7.3-4-2.1-8.1-3.9-12-5.9-7.3-3.8-13-9.1-15.8-17.1-.2-.7-.8-1.3-1.3-2.1-5.5 2.4-10.6 5-16 7-15.5 5.7-31.2 10.7-47.3 14.3-1.4.3-2.7.9-4 1.4.3 5.9 2.1 11.1 4.5 16 4.1 8.4 10 15.2 18.5 19.5 6.5 3.3 13.5 4.2 20.7 4.1 8.2-.1 15.5-2.7 22.4-6.6.7-6.6-2.2-13-.4-19.4h5.5zM914 122.1c.3.4.4.7.7.9.5.4 1 .9 1.5 1.3 6.7 4.9 14.3 6.5 22.5 6.4 14.2-.3 24.1-8.3 28.3-19.6 2.2-5.9 3.4-12 4.2-18.2 1.5-10.5.6-20.5-3.5-30.1-7-16.8-22.9-23.1-37-22.7-5.8.1-11.7 1.7-16.9 5.4.2 25.5.2 51.1.2 76.6zM567.3 65.9c16.5-3 32.5-6.9 48.3-11.3 6.3-1.7 12.5-3.9 18.8-5.9.1 0 .2-.3.3-.4s.1-.3.3-.7c-1.9-7.3-4.2-14.6-8.1-21.4-6.8-11.8-22.5-17.2-34.9-13-7.6 2.6-12.5 7.9-16.3 14.5-4.1 7.1-6.2 14.9-7.5 22.9-.9 4.8-2 9.7-.9 15.3zm291.4 56.3V83.8c-9-.5-17.3 1.3-25 5.6-5.5 3.1-9.7 7.6-11.1 14-.6 2.7-.7 5.6-.7 8.4.1 11.6 7.6 17.9 18.2 18.9 7.7.6 13.8-2.6 18.6-8.5zm203.9-58.1c-1.8-4.7-3-9-4.9-13-4.4-9.4-11.7-14-22.2-13.5-4.7.2-8.7 1.8-12 5.1-2.4 2.4-4.5 4.9-5.9 7.9-3.7 8.2-5.9 16.7-5.4 26.1 1.1 0 1.9.1 2.7 0 14.1-2.6 27.9-6.4 41.7-10.3 1.7-.5 3.5-1.3 6-2.3z"/></svg>